<svg width="32" height="32" viewBox="0 0 32 32" fill="none" xmlns="http://www.w3.org/2000/svg">
<path d="M22.5538 5.77081C19.8725 4.516 16.8945 3.85269 13.9418 3.85269C10.9892 3.85269 8.01115 4.516 5.3299 5.77081C5.14871 5.85563 5.03284 6.03769 5.03284 6.23781V29.8766C5.03284 30.1613 5.26365 30.3921 5.5484 30.3921H22.3352C22.62 30.3921 22.8508 30.1613 22.8508 29.8766V6.23775C22.8509 6.03763 22.7351 5.85563 22.5538 5.77081ZM6.06402 10.518H21.8197V14.3106H6.06402V10.518ZM21.8197 29.3609H6.06402V25.7076H21.8197V29.3609ZM21.8198 24.6765H6.06402V15.3418H21.8198V24.6765ZM21.8198 9.48687H6.06402V6.56888C8.53134 5.46575 11.2479 4.88381 13.942 4.88381C16.636 4.88381 19.3526 5.46575 21.8198 6.56888V9.48687Z" fill="#727489"/>
<path d="M10.6617 16.1115H7.5744C7.28965 16.1115 7.05884 16.3423 7.05884 16.6271V23.2518C7.05884 23.5366 7.28965 23.7674 7.5744 23.7674H10.6617C10.9464 23.7674 11.1772 23.5366 11.1772 23.2518V16.6271C11.1772 16.3423 10.9464 16.1115 10.6617 16.1115ZM10.1461 22.7362H8.08996V22.0021H10.1461V22.7362ZM10.1461 20.9709H8.08996V18.9086H10.1461V20.9709ZM10.1461 17.8774H8.08996V17.1427H10.1461V17.8774Z" fill="#727489"/>
<path d="M20.3094 16.1115H17.2221C16.9373 16.1115 16.7065 16.3423 16.7065 16.6271V23.2518C16.7065 23.5366 16.9373 23.7674 17.2221 23.7674H20.3094C20.5942 23.7674 20.8249 23.5366 20.8249 23.2518V16.6271C20.8249 16.3423 20.5942 16.1115 20.3094 16.1115ZM19.7938 22.7362H17.7377V22.0021H19.7938V22.7362ZM19.7938 20.9709H17.7377V18.9086H19.7938V20.9709ZM19.7938 17.8774H17.7377V17.1427H19.7938V17.8774Z" fill="#727489"/>
<path d="M15.4854 16.1115H12.3981C12.1134 16.1115 11.8826 16.3423 11.8826 16.6271V23.2518C11.8826 23.5366 12.1134 23.7674 12.3981 23.7674H15.4854C15.7701 23.7674 16.0009 23.5366 16.0009 23.2518V16.6271C16.0009 16.3423 15.7701 16.1115 15.4854 16.1115ZM14.9698 22.7362H12.9137V22.0021H14.9698V22.7362ZM14.9698 20.9709H12.9137V18.9086H14.9698V20.9709ZM14.9698 17.8774H12.9137V17.1427H14.9698V17.8774Z" fill="#727489"/>
<path d="M10.6617 11.9388H7.5744C7.28965 11.9388 7.05884 12.1696 7.05884 12.4544C7.05884 12.7391 7.28965 12.9699 7.5744 12.9699H10.6617C10.9464 12.9699 11.1772 12.7391 11.1772 12.4544C11.1772 12.1696 10.9464 11.9388 10.6617 11.9388Z" fill="#727489"/>
<path d="M20.3094 11.9388H17.2221C16.9373 11.9388 16.7065 12.1696 16.7065 12.4544C16.7065 12.7391 16.9373 12.9699 17.2221 12.9699H20.3094C20.5942 12.9699 20.8249 12.7391 20.8249 12.4544C20.8249 12.1696 20.5942 11.9388 20.3094 11.9388Z" fill="#727489"/>
<path d="M15.4854 11.9388H12.3981C12.1134 11.9388 11.8826 12.1696 11.8826 12.4544C11.8826 12.7391 12.1134 12.9699 12.3981 12.9699H15.4854C15.7701 12.9699 16.0009 12.7391 16.0009 12.4544C16.0009 12.1696 15.7701 11.9388 15.4854 11.9388Z" fill="#727489"/>
<path d="M10.6617 26.1481H7.5744C7.28965 26.1481 7.05884 26.3789 7.05884 26.6636V28.3388C7.05884 28.6236 7.28965 28.8544 7.5744 28.8544H10.6617C10.9464 28.8544 11.1772 28.6236 11.1772 28.3388V26.6636C11.1772 26.3789 10.9464 26.1481 10.6617 26.1481ZM10.1461 27.8233H8.08996V27.1792H10.1461V27.8233Z" fill="#727489"/>
<path d="M20.3094 26.1481H17.2221C16.9373 26.1481 16.7065 26.3789 16.7065 26.6636V28.3388C16.7065 28.6236 16.9373 28.8544 17.2221 28.8544H20.3094C20.5942 28.8544 20.8249 28.6236 20.8249 28.3388V26.6636C20.8249 26.3789 20.5942 26.1481 20.3094 26.1481ZM19.7938 27.8233H17.7377V27.1792H19.7938V27.8233Z" fill="#727489"/>
<path d="M15.4854 26.1481H12.3981C12.1134 26.1481 11.8826 26.3789 11.8826 26.6636V28.3388C11.8826 28.6236 12.1134 28.8544 12.3981 28.8544H15.4854C15.7701 28.8544 16.0009 28.6236 16.0009 28.3388V26.6636C16.0009 26.3789 15.7701 26.1481 15.4854 26.1481ZM14.9698 27.8233H12.9137V27.1792H14.9698V27.8233Z" fill="#727489"/>
<path d="M28.1221 20.6839L27.1602 20.4396V10.6947C27.9751 10.4686 28.5751 9.72056 28.5751 8.83463C28.5751 7.77013 27.7091 6.90413 26.6446 6.90413C25.5801 6.90413 24.7141 7.77013 24.7141 8.83463C24.7141 9.72056 25.3141 10.4686 26.1291 10.6947V20.1777L24.4589 19.7536V5.24294C24.4589 5.05188 24.3533 4.87656 24.1844 4.78725C21.6384 3.44025 18.8962 2.62856 16.1137 2.35106V2.17188C16.1137 0.97425 15.1394 0 13.9419 0C12.7445 0 11.7702 0.97425 11.7702 2.17175V2.35106C8.98768 2.62856 6.24549 3.44031 3.69943 4.78725C3.53061 4.87656 3.42493 5.052 3.42493 5.24294V31.4844C3.42493 31.7692 3.65574 32 3.94049 32H23.9433C24.2281 32 24.4589 31.7692 24.4589 31.4844V24.6075L28.1221 23.6771C28.3507 23.6191 28.5108 23.4133 28.5108 23.1774V21.1836C28.5109 20.9478 28.3508 20.7419 28.1221 20.6839ZM12.8012 2.17175H12.8013C12.8013 1.54281 13.3129 1.03119 13.9419 1.03119C14.5708 1.03119 15.0824 1.54281 15.0824 2.17175V2.27275C14.3226 2.23306 13.5611 2.23306 12.8012 2.27275V2.17175H12.8012ZM4.45611 30.9689V5.55606C10.4187 2.51313 17.4651 2.51313 23.4277 5.55606V20.1545V24.2065V30.9689H4.45611ZM25.7452 8.83463C25.7452 8.33869 26.1486 7.93525 26.6446 7.93525C27.1406 7.93525 27.544 8.33869 27.544 8.83463C27.544 9.33056 27.1406 9.73406 26.6446 9.73406C26.1486 9.73406 25.7452 9.3305 25.7452 8.83463ZM27.4797 22.7764L24.4589 23.5436V20.8174L27.4797 21.5846V22.7764Z" fill="#727489"/>
<path d="M16.2608 5.6395C16.1008 5.5475 15.9036 5.54825 15.7442 5.64138L14.973 6.0915L14.2017 5.64131C14.0411 5.54763 13.8425 5.54763 13.6819 5.64131L12.9106 6.0915L12.1394 5.64131C11.9799 5.54825 11.7828 5.54756 11.6228 5.6395C11.4626 5.73144 11.3639 5.90194 11.3639 6.08663V8.35513C11.3639 8.63988 11.5946 8.87069 11.8795 8.87069H16.0041C16.2889 8.87069 16.5196 8.63988 16.5196 8.35513V6.08663C16.5197 5.90194 16.421 5.73138 16.2608 5.6395ZM15.4886 7.83963H12.3951V6.9845L12.6508 7.13375C12.8113 7.22744 13.01 7.22744 13.1706 7.13375L13.9418 6.68356L14.7131 7.13375C14.8736 7.22744 15.0723 7.2275 15.2329 7.13375L15.4886 6.98456V7.83963Z" fill="#727489"/>
</svg>
