<svg width="32" height="32" viewBox="0 0 32 32" fill="none" xmlns="http://www.w3.org/2000/svg">
<g clip-path="url(#clip0_37_67356)">
<path d="M30.7248 27.3153L30.3661 24.8398L30.3652 24.84C30.3552 24.7715 30.3345 24.7038 30.3003 24.6403C28.3071 20.9291 24.7436 16.3803 20.5234 12.1602C16.5146 8.15149 12.3118 4.80624 8.68895 2.74081C4.79727 0.522064 2.04433 0.0453773 0.727587 1.36206C-0.589098 2.67887 -0.112412 5.4318 2.10633 9.32336C4.17177 12.9461 7.51707 17.1491 11.5257 21.1578C15.746 25.3781 20.2947 28.9416 24.0057 30.9348C24.0692 30.9689 24.1369 30.99 24.2054 30.9999L24.2054 31.0005L26.681 31.3593C26.7099 31.3634 26.739 31.3656 26.7677 31.3656C26.9271 31.3656 27.0813 31.3026 27.1957 31.1883L30.5539 27.8301C30.6888 27.695 30.7522 27.5042 30.7248 27.3153ZM1.33121 4.41637C1.17465 3.68506 1.09121 2.71006 1.58346 2.21794C2.07565 1.72575 3.05058 1.80912 3.78189 1.96569C4.9382 2.21325 6.42776 2.84487 8.08939 3.79218C10.0264 4.89649 12.1379 6.38124 14.299 8.14536C12.0134 8.66799 6.76489 9.6333 3.03939 8.51336C2.15821 6.93668 1.56827 5.52362 1.33121 4.41637ZM3.90289 9.96548C4.96395 10.1664 6.08533 10.2468 7.19839 10.2468C10.8366 10.2468 14.3865 9.39255 15.4549 9.11173C16.8589 10.3129 18.2742 11.6229 19.6674 13.016C21.7304 15.079 23.6305 17.2176 25.2584 19.2913C23.2556 19.8123 17.9507 20.9488 12.2393 20.1587C8.81926 16.721 5.90695 13.1557 3.90289 9.96548ZM24.1849 29.6528C21.0172 27.8835 17.2584 24.9845 13.6414 21.5323C14.576 21.6115 15.4904 21.6462 16.3725 21.6462C21.0427 21.6462 24.8231 20.6852 26.0562 20.3315C27.231 21.9008 28.2354 23.418 29.0182 24.8195L24.1849 29.6528ZM26.5542 30.1179L25.5737 29.9758L29.3413 26.2082L29.4833 27.1886L26.5542 30.1179Z" fill="#727489"/>
<path d="M29.766 13.3954C28.7351 11.9694 27.7614 10.6223 27.7614 7.88636C27.7614 7.55211 27.4905 7.28117 27.1562 7.28117C26.8219 7.28117 26.551 7.55211 26.551 7.88636C26.551 11.0139 27.6866 12.5852 28.785 14.1045C29.816 15.5306 30.7896 16.8777 30.7896 19.6136C30.7896 19.9478 31.0605 20.2188 31.3948 20.2188C31.7291 20.2188 32 19.9478 32 19.6136C32 16.486 30.8643 14.9148 29.766 13.3954Z" fill="#727489"/>
<path d="M27.3558 6.69086C27.69 6.69086 27.961 6.41991 27.961 6.08567C27.961 5.75144 27.69 5.48048 27.3558 5.48048C27.0216 5.48048 26.7506 5.75144 26.7506 6.08567C26.7506 6.41991 27.0216 6.69086 27.3558 6.69086Z" fill="#727489"/>
</g>
<defs>
<clipPath id="clip0_37_67356">
<rect width="32" height="32" fill="white"/>
</clipPath>
</defs>
</svg>
