<svg width="32" height="32" viewBox="0 0 32 32" fill="none" xmlns="http://www.w3.org/2000/svg">
<path d="M31.457 7.7285H0.543C0.243125 7.7285 0 7.97163 0 8.2715C0 12.5452 1.66431 16.5632 4.68625 19.5852C7.70831 22.6072 11.7262 24.2714 16 24.2714C20.2738 24.2714 24.2917 22.6071 27.3137 19.5852C30.3357 16.5633 32 12.5452 32 8.2715C32 7.97163 31.7569 7.7285 31.457 7.7285ZM28.2556 8.8145C27.9704 15.3283 22.5828 20.5399 16.0001 20.5399C9.41725 20.5399 4.02956 15.3283 3.74437 8.8145H28.2556ZM16.0001 23.1855C7.95813 23.1855 1.3825 16.7877 1.09575 8.8145H2.65769C2.94369 15.9272 8.81844 21.6258 16.0001 21.6258C23.1817 21.6258 29.0564 15.9272 29.3424 8.8145H30.9043C30.6176 16.7877 24.0419 23.1855 16.0001 23.1855Z" fill="#727489"/>
<path d="M12.4234 14.2592C12.222 14.091 11.9289 14.091 11.7275 14.2592C11.4097 14.5244 10.373 15.4543 10.373 16.2842C10.373 17.2229 11.1367 17.9867 12.0754 17.9867C13.0141 17.9867 13.7779 17.2229 13.7779 16.2842C13.7778 15.4544 12.7412 14.5244 12.4234 14.2592ZM12.0753 16.9007C11.7354 16.9007 11.4589 16.6242 11.4589 16.2844C11.4615 16.1331 11.7308 15.7642 12.0752 15.415C12.4167 15.7624 12.6893 16.1352 12.6918 16.2844C12.6917 16.6242 12.4152 16.9007 12.0753 16.9007Z" fill="#727489"/>
<path d="M20.2726 14.2592C20.0712 14.091 19.7781 14.091 19.5767 14.2592C19.259 14.5244 18.2223 15.4543 18.2223 16.2842C18.2222 17.2229 18.9859 17.9867 19.9246 17.9867C20.8634 17.9867 21.627 17.2229 21.627 16.2842C21.627 15.4544 20.5904 14.5244 20.2726 14.2592ZM19.9246 16.9007C19.5847 16.9007 19.3081 16.6242 19.3081 16.2844C19.3107 16.1331 19.58 15.7642 19.9244 15.415C20.2659 15.7624 20.5385 16.1352 20.541 16.2844C20.541 16.6242 20.2645 16.9007 19.9246 16.9007Z" fill="#727489"/>
<path d="M8.31673 9.72999C8.11523 9.5618 7.82223 9.5618 7.62079 9.72999C7.30304 9.99524 6.26636 10.9251 6.26636 11.7551C6.26636 12.6937 7.03004 13.4575 7.96873 13.4575C8.90742 13.4575 9.67117 12.6937 9.67117 11.7551C9.67117 10.9251 8.63448 9.99518 8.31673 9.72999ZM7.96873 12.3715C7.62892 12.3715 7.35236 12.0949 7.35236 11.7552C7.35479 11.6038 7.62423 11.2349 7.96861 10.8857C8.31011 11.2332 8.58273 11.6059 8.58523 11.7552C8.58511 12.095 8.30861 12.3715 7.96873 12.3715Z" fill="#727489"/>
<path d="M24.3793 9.72999C24.1779 9.5618 23.8848 9.5618 23.6834 9.72999C23.3657 9.99524 22.329 10.9251 22.329 11.7551C22.3289 12.6937 23.0925 13.4575 24.0313 13.4575C24.97 13.4575 25.7337 12.6937 25.7337 11.7551C25.7337 10.9251 24.6971 9.99518 24.3793 9.72999ZM24.0313 12.3715C23.6914 12.3715 23.4148 12.0949 23.4148 11.7552C23.4174 11.6038 23.6867 11.2349 24.0311 10.8857C24.3726 11.2332 24.6452 11.6059 24.6477 11.7552C24.6477 12.095 24.3712 12.3715 24.0313 12.3715Z" fill="#727489"/>
<path d="M16.348 9.72999C16.1464 9.56174 15.8534 9.56174 15.652 9.72999C15.3343 9.99524 14.2976 10.9251 14.2976 11.7551C14.2976 12.6937 15.0614 13.4575 16 13.4575C16.9387 13.4575 17.7024 12.6937 17.7024 11.7551C17.7024 10.9251 16.6657 9.99518 16.348 9.72999ZM16 12.3715C15.6601 12.3715 15.3835 12.0949 15.3835 11.7552C15.386 11.6038 15.6554 11.2349 15.9998 10.8857C16.3413 11.2332 16.6139 11.6059 16.6164 11.7552C16.6164 12.095 16.3399 12.3715 16 12.3715Z" fill="#727489"/>
</svg>
