<svg width="48" height="44" viewBox="0 0 48 44" fill="none" xmlns="http://www.w3.org/2000/svg">
<circle cx="40" cy="12" r="8" fill="#FA5926"/>
<path d="M36.902 14.394L36.594 13.8055C36.7443 13.5012 36.8873 13.2023 37.023 12.909C37.1587 12.612 37.2888 12.3205 37.4135 12.0345C37.5418 11.7448 37.6665 11.4588 37.7875 11.1765C37.9085 10.8905 38.0295 10.6063 38.1505 10.324C38.2715 10.038 38.3943 9.752 38.519 9.466C38.6473 9.18 38.7775 8.89033 38.9095 8.597C39.0452 8.3 39.1863 7.99933 39.333 7.695H39.7455L40.5815 8.1845C40.4422 8.4485 40.312 8.70517 40.191 8.9545C40.07 9.20017 39.9545 9.444 39.8445 9.686C39.7345 9.928 39.6263 10.1682 39.52 10.4065C39.4137 10.6448 39.3037 10.885 39.19 11.127C39.08 11.3653 38.9645 11.6092 38.8435 11.8585C38.7225 12.1078 38.5923 12.3645 38.453 12.6285L37.991 13.4205H42.941V14.394H36.902ZM40.433 16V13.3435L40.554 10.7035H41.698V16H40.433Z" fill="white"/>
<g clip-path="url(#clip0_35_15761)">
<path d="M26.7035 28.6341H21.7298C21.3801 28.6341 21.0956 28.3496 21.0956 27.9999C21.0956 27.6503 21.3801 27.3658 21.7298 27.3658H26.7038C29.6241 27.3658 32 24.9899 32 22.0696C32 19.3177 29.8901 17.0493 27.2033 16.7968C26.9506 14.1098 24.6822 12 21.9304 12C19.0101 12 16.6342 14.3759 16.6342 17.2962V22.2702C16.6342 22.6199 16.3496 22.9044 15.9999 22.9044C15.6502 22.9044 15.3658 22.6198 15.3658 22.2702V17.2962C15.3658 14.3759 12.9899 12 10.0696 12C7.31775 12 5.04938 14.1098 4.79688 16.7968C2.10987 17.0494 0 19.3177 0 22.0696C0 24.9899 2.37587 27.3658 5.29619 27.3658H10.2701C10.6198 27.3658 10.9043 27.6504 10.9043 28C10.9043 28.3496 10.6197 28.6342 10.2701 28.6342H5.29619C2.37587 28.6341 0 31.01 0 33.9303C0 36.6822 2.10987 38.9506 4.79688 39.2031C5.04938 41.89 7.31775 43.9999 10.0696 43.9999C12.9899 43.9999 15.3658 41.624 15.3658 38.7037V33.7298C15.3658 33.3801 15.6504 33.0956 16 33.0956C16.3498 33.0956 16.6342 33.3802 16.6342 33.7298V38.7035C16.6341 40.1182 17.185 41.4483 18.1852 42.4486C19.1855 43.449 20.5156 44 21.9303 44C24.6821 44 26.9506 41.8901 27.2032 39.2031C29.8901 38.9506 31.9999 36.6822 31.9999 33.9304C31.9999 32.5157 31.4489 31.1856 30.4486 30.1853C29.4482 29.1849 28.1182 28.6341 26.7035 28.6341ZM26.7038 38.0042H26.6154C26.2779 38.0042 26.0043 38.2779 26.0043 38.6154V38.7038C26.0043 40.9502 24.1768 42.7778 21.9304 42.7778C20.8422 42.7778 19.8191 42.3539 19.0496 41.5844C18.2801 40.8149 17.8563 39.7918 17.8564 38.7036V33.7299C17.8564 32.7063 17.0236 31.8735 16.0001 31.8735C14.9765 31.8735 14.1437 32.7063 14.1437 33.7299V38.7038C14.1437 40.9501 12.3161 42.7777 10.0697 42.7777C7.82337 42.7777 5.99581 40.9501 5.99581 38.7038V38.6154C5.99581 38.2779 5.72219 38.0042 5.38469 38.0042H5.29625C3.04981 38.0042 1.22225 36.1767 1.22225 33.9303C1.22225 31.6839 3.04981 29.8564 5.29619 29.8564H10.2701C11.2937 29.8564 12.1264 29.0236 12.1264 28C12.1264 26.9764 11.2936 26.1436 10.2701 26.1436H5.29619C3.04981 26.1436 1.22225 24.3161 1.22225 22.0697C1.22225 19.8233 3.04981 17.9957 5.29619 17.9957H5.38456C5.72206 17.9957 5.99569 17.7221 5.99569 17.3846V17.2962C5.99569 15.0499 7.82325 13.2223 10.0696 13.2223C12.316 13.2223 14.1436 15.0499 14.1436 17.2962V22.2703C14.1436 23.2939 14.9764 24.1266 15.9999 24.1266C17.0235 24.1266 17.8563 23.2938 17.8563 22.2703V17.2962C17.8563 15.0498 19.6839 13.2222 21.9303 13.2222C24.1766 13.2222 26.0042 15.0498 26.0042 17.2962V17.3846C26.0042 17.7221 26.2778 17.9957 26.6153 17.9957H26.7038C28.9501 17.9957 30.7777 19.8233 30.7777 22.0697C30.7777 24.3161 28.9501 26.1436 26.7038 26.1436H21.7297C20.7061 26.1436 19.8734 26.9764 19.8734 28C19.8734 29.0236 20.7062 29.8564 21.7297 29.8564H26.7034C27.7917 29.8563 28.8148 30.2801 29.5843 31.0495C30.3538 31.8189 30.7777 32.8421 30.7777 33.9303C30.7778 36.1767 28.9502 38.0042 26.7038 38.0042Z" fill="#727489"/>
<path d="M16.8643 28.046L24.2546 20.6863C24.4939 20.4481 24.4946 20.0612 24.2564 19.8221C24.0182 19.5829 23.6312 19.5821 23.3922 19.8203L16.0018 27.1799L8.64212 19.7896C8.40387 19.5504 8.01699 19.5497 7.77787 19.7878C7.53874 20.0259 7.53793 20.4129 7.77606 20.652L15.1357 28.0423L7.74531 35.4021C7.50618 35.6403 7.50537 36.0273 7.74349 36.2664C7.86293 36.3863 8.01974 36.4463 8.17649 36.4463C8.33243 36.4463 8.48849 36.3869 8.60768 36.2682L15.998 28.9085L23.3577 36.2988C23.4771 36.4187 23.6339 36.4788 23.7907 36.4788C23.9466 36.4788 24.1027 36.4194 24.2219 36.3006C24.4611 36.0624 24.4618 35.6755 24.2237 35.4364L16.8643 28.046Z" fill="#727489"/>
</g>
<defs>
<clipPath id="clip0_35_15761">
<rect width="32" height="32" fill="white" transform="translate(0 12)"/>
</clipPath>
</defs>
</svg>
