<svg width="32" height="32" viewBox="0 0 32 32" fill="none" xmlns="http://www.w3.org/2000/svg">
<path d="M14.5745 10.5882H12.4027C12.1068 10.5882 11.8669 10.8281 11.8669 11.1239C11.8669 11.4198 12.1068 11.6596 12.4027 11.6596H14.5745C14.774 11.6596 14.9362 11.8219 14.9362 12.0213V13.3023C14.9362 13.5981 15.176 13.8379 15.4719 13.8379C15.7679 13.8379 16.0076 13.5981 16.0076 13.3023V12.0213C16.0076 11.2311 15.3647 10.5882 14.5745 10.5882Z" fill="#727489"/>
<path d="M19.5965 10.5882H17.7727C17.4768 10.5882 17.2371 10.8281 17.2371 11.1239C17.2371 11.4198 17.4769 11.6596 17.7727 11.6596H19.5965C19.8924 11.6596 20.1322 11.4198 20.1322 11.1239C20.1322 10.8281 19.8924 10.5882 19.5965 10.5882Z" fill="#727489"/>
<path d="M16.9114 15.4516H15.0876C14.7917 15.4516 14.5519 15.6915 14.5519 15.9874C14.5519 16.2833 14.7917 16.5231 15.0876 16.5231H16.9114C17.2074 16.5231 17.4472 16.2832 17.4472 15.9874C17.4472 15.6915 17.2074 15.4516 16.9114 15.4516Z" fill="#727489"/>
<path d="M25.9928 30.9286H25.4658V25.0134C25.4658 22.6083 24.2774 20.3635 22.2869 19.0087C21.8425 18.7063 21.371 18.4568 20.8777 18.2614C22.2115 17.0509 23.051 15.3862 23.226 13.5886C24.1553 13.1621 24.7775 12.2178 24.7775 11.1744C24.7775 10.1451 24.1705 9.21019 23.2606 8.77625V7.26094C23.2606 3.25725 20.0033 0 15.9996 0C11.9959 0 8.73858 3.25725 8.73858 7.261V8.77637C7.82877 9.21037 7.22195 10.1453 7.22195 11.1745C7.22195 12.2178 7.84402 13.1619 8.77327 13.5886C8.9482 15.3863 9.7877 17.0509 11.1215 18.2614C10.6282 18.4568 10.1567 18.7063 9.71233 19.0087C7.72227 20.3632 6.53408 22.6079 6.53408 25.0134V30.9286H6.02458C5.72864 30.9286 5.48889 31.1684 5.48889 31.4643C5.48889 31.7602 5.72864 32 6.02458 32H25.9928C26.2888 32 26.5286 31.7601 26.5286 31.4643C26.5286 31.1685 26.2888 30.9286 25.9928 30.9286ZM23.2606 10.0774C23.538 10.3665 23.706 10.7571 23.706 11.1744C23.706 11.5922 23.538 11.9827 23.2606 12.2718V10.0774ZM8.73858 12.2716C8.4612 11.9826 8.29339 11.5922 8.29339 11.1745C8.29339 10.7572 8.46133 10.3668 8.73858 10.0776V12.2716ZM9.81014 7.261C9.81008 3.84813 12.5866 1.07144 15.9996 1.07144C19.4126 1.07144 22.1892 3.84813 22.1892 7.261V7.476C20.0759 6.6405 19.7452 5.1465 19.7319 5.08156C19.6957 4.88594 19.554 4.72644 19.3641 4.66744C19.1737 4.60838 18.967 4.6595 18.8263 4.80025C16.4695 7.15712 13.0395 8.11894 9.81014 7.34806V7.261ZM15.464 21.3687L13.3125 20.5362C13.1476 20.4724 12.9621 20.4941 12.8163 20.5939C12.6706 20.6938 12.5835 20.8591 12.5835 21.0359V24.1768C12.5835 24.3535 12.6706 24.5188 12.8163 24.6187C12.9068 24.6807 13.0126 24.7126 13.1193 24.7126C13.1844 24.7126 13.25 24.7006 13.3125 24.6765L15.464 23.844V30.9286H11.3427V25.3421C11.3427 25.0462 11.1029 24.8063 10.807 24.8063C10.5111 24.8063 10.2713 25.0462 10.2713 25.3421V30.9286H7.60564V25.0134H7.60552C7.60552 22.9629 8.61852 21.0492 10.3152 19.8944C10.8821 19.5085 11.5008 19.2241 12.1559 19.0451C13.1568 19.6709 14.2872 20.0398 15.464 20.1256V21.3687H15.464ZM15.4639 22.5176V22.6951L13.6548 23.3951V21.8176L15.4639 22.5176ZM12.6356 18.0812C12.6073 18.0627 12.4383 17.9473 12.4042 17.923C10.7774 16.7603 9.81002 14.8862 9.81002 12.8844V8.44588C13.0638 9.14038 16.4731 8.26819 18.992 6.10619C19.3941 6.87281 20.2825 7.98375 22.1891 8.61569V12.8843C22.1891 14.8918 21.2163 16.7707 19.5813 17.9326C19.5517 17.9536 19.3946 18.0609 19.3659 18.0795C18.3636 18.7304 17.202 19.0739 15.9996 19.0739C14.797 19.0739 13.6351 18.7303 12.6356 18.0812ZM16.5353 22.5176L18.3445 21.8176V23.3951L16.5353 22.6951V22.5176ZM24.3944 30.9286H21.7281V25.3421C21.7281 25.0462 21.4883 24.8064 21.1924 24.8064C20.8965 24.8064 20.6566 25.0462 20.6566 25.3421V30.9286H16.5353V23.844L18.6869 24.6765C18.7494 24.7007 18.8149 24.7126 18.8801 24.7126C18.9867 24.7126 19.0926 24.6807 19.183 24.6187C19.3287 24.5189 19.4159 24.3536 19.4159 24.1768V21.0359C19.4159 20.8592 19.3288 20.6939 19.183 20.5939C19.0372 20.4941 18.8516 20.4724 18.6869 20.5362L16.5353 21.3687V20.1257C17.7121 20.0398 18.8425 19.671 19.8433 19.0452C20.4983 19.2242 21.1171 19.5085 21.6841 19.8944C23.3813 21.0495 24.3944 22.9632 24.3944 25.0134V30.9286Z" fill="#727489"/>
<path d="M28.4247 30.9286H27.5888C27.2929 30.9286 27.0531 31.1684 27.0531 31.4642C27.0531 31.7601 27.2929 32 27.5888 32H28.4247C28.7206 32 28.9604 31.7601 28.9604 31.4642C28.9604 31.1684 28.7205 30.9286 28.4247 30.9286Z" fill="#727489"/>
<path d="M4.41136 30.9286H3.57542C3.27949 30.9286 3.03967 31.1684 3.03967 31.4642C3.03967 31.7601 3.27949 32 3.57542 32H4.41136C4.7073 32 4.94711 31.7601 4.94711 31.4642C4.94711 31.1684 4.7073 30.9286 4.41136 30.9286Z" fill="#727489"/>
<path d="M18.7602 13.1623C19.0561 13.1623 19.296 12.9225 19.296 12.6266C19.296 12.3307 19.0561 12.0908 18.7602 12.0908C18.4644 12.0908 18.2245 12.3307 18.2245 12.6266C18.2245 12.9225 18.4644 13.1623 18.7602 13.1623Z" fill="#727489"/>
<path d="M13.2386 13.1623C13.5345 13.1623 13.7744 12.9225 13.7744 12.6266C13.7744 12.3307 13.5345 12.0908 13.2386 12.0908C12.9427 12.0908 12.7029 12.3307 12.7029 12.6266C12.7029 12.9225 12.9427 13.1623 13.2386 13.1623Z" fill="#727489"/>
</svg>
