<svg width="48" height="44" viewBox="0 0 48 44" fill="none" xmlns="http://www.w3.org/2000/svg">
<circle cx="40" cy="12" r="8" fill="#FA5926"/>
<path d="M37.88 16L37.6875 15.351C38.0285 15.1237 38.3768 14.8615 38.7325 14.5645C39.0882 14.2675 39.4273 13.9485 39.75 13.6075C40.0727 13.2665 40.3623 12.9127 40.619 12.546C40.8757 12.1757 41.0773 11.8035 41.224 11.4295C41.3743 11.0555 41.4495 10.6888 41.4495 10.3295C41.4495 9.83817 41.3267 9.46233 41.081 9.202C40.839 8.94167 40.4998 8.8115 40.0635 8.8115C39.6895 8.8115 39.3412 8.8885 39.0185 9.0425C38.6995 9.19283 38.4428 9.37067 38.2485 9.576L37.715 8.8115C37.858 8.66117 38.0487 8.50533 38.287 8.344C38.529 8.179 38.8168 8.0415 39.1505 7.9315C39.4842 7.81783 39.8582 7.761 40.2725 7.761C40.8555 7.761 41.3322 7.87283 41.7025 8.0965C42.0765 8.32017 42.3515 8.62083 42.5275 8.9985C42.7035 9.37617 42.7915 9.79783 42.7915 10.2635C42.7915 10.8135 42.6577 11.3708 42.39 11.9355C42.126 12.5002 41.7593 13.0428 41.29 13.5635C40.8243 14.0805 40.2853 14.5517 39.673 14.977L43.105 14.9275V16H37.88Z" fill="white"/>
<path d="M31.3643 20.9693C31.3849 20.9693 31.4055 20.9701 31.426 20.9709C31.5756 20.9777 31.7218 20.9231 31.8302 20.8196C31.9386 20.716 31.9999 20.5726 31.9999 20.4227V18.4831C31.9999 18.1801 31.7542 17.9343 31.4511 17.9343H0.548813C0.24575 17.9342 0 18.1799 0 18.4831V20.4206C0 20.7236 0.24575 20.9694 0.548813 20.9694C1.26856 20.9694 1.85419 21.5549 1.85419 22.2747C1.85419 22.9946 1.26856 23.5801 0.548813 23.5801C0.24575 23.5801 0 23.8257 0 24.1289V26.1459C0 26.4489 0.24575 26.6947 0.548813 26.6947C1.26856 26.6947 1.85419 27.2802 1.85419 28.0001C1.85419 28.7199 1.26856 29.3054 0.548813 29.3054C0.24575 29.3054 0 29.5512 0 29.8542V31.8712C0 32.1743 0.24575 32.4201 0.548813 32.4201C1.26856 32.4201 1.85419 33.0056 1.85419 33.7254C1.85419 34.4452 1.26856 35.0309 0.548813 35.0309C0.24575 35.0309 0 35.2766 0 35.5797V37.5172C0 37.8202 0.24575 38.066 0.548813 38.066H31.4512C31.7542 38.066 32 37.8203 32 37.5172V35.5776C32 35.4276 31.9387 35.2842 31.8302 35.1807C31.7218 35.0772 31.5759 35.0225 31.4261 35.0294C31.4056 35.0303 31.385 35.031 31.3643 35.031C30.6446 35.031 30.0589 34.4454 30.0589 33.7256C30.0589 33.0058 30.6445 32.4202 31.3643 32.4202C31.385 32.4202 31.4056 32.4209 31.4261 32.4219C31.5756 32.4289 31.7218 32.374 31.8302 32.2705C31.9387 32.167 32 32.0236 32 31.8737V29.8523C32 29.7024 31.9387 29.559 31.8302 29.4555C31.7218 29.3519 31.5752 29.2969 31.4261 29.3041C31.4056 29.3051 31.385 29.3057 31.3643 29.3057C30.6446 29.3057 30.0589 28.7202 30.0589 28.0004C30.0589 27.2806 30.6445 26.695 31.3643 26.695C31.385 26.695 31.4056 26.6957 31.4261 26.6966C31.5751 26.7036 31.7218 26.6487 31.8302 26.5452C31.9386 26.4417 32 26.2983 32 26.1484V24.127C32 23.9771 31.9387 23.8337 31.8302 23.7302C31.7219 23.6266 31.5759 23.5722 31.4261 23.5788C31.4056 23.5797 31.385 23.5804 31.3643 23.5804C30.6446 23.5804 30.0589 22.9949 30.0589 22.2751C30.0589 21.5552 30.6445 20.9693 31.3643 20.9693ZM30.9024 24.6331V25.6416C29.7976 25.8575 28.9614 26.8329 28.9614 27.9999C28.9614 29.1669 29.7976 30.1424 30.9024 30.3583V31.3668C29.7976 31.5827 28.9614 32.5582 28.9614 33.7252C28.9614 34.8922 29.7976 35.8676 30.9024 36.0836V36.9679H1.09763V36.0649C2.159 35.8159 2.95181 34.8614 2.95181 33.7251C2.95181 32.5889 2.15906 31.6343 1.09763 31.3854V30.3396C2.159 30.0909 2.95175 29.1362 2.95175 28C2.95175 26.8637 2.159 25.9091 1.09756 25.6602V24.6144C2.15894 24.3655 2.95175 23.4109 2.95175 22.2747C2.95175 21.1384 2.159 20.1838 1.09756 19.9349V19.0319H30.9023V19.9162C29.7975 20.1322 28.9613 21.1076 28.9613 22.2746C28.9614 23.4417 29.7976 24.4171 30.9024 24.6331Z" fill="#727489"/>
<path d="M26.9761 20.5728H5.02391C4.72085 20.5728 4.4751 20.8185 4.4751 21.1216V34.8783C4.4751 35.1814 4.72085 35.4271 5.02391 35.4271H26.9762C27.2792 35.4271 27.525 35.1814 27.525 34.8783V21.1216C27.5249 20.8185 27.2792 20.5728 26.9761 20.5728ZM26.4273 34.3295H5.57266V21.6704H26.4273V34.3295Z" fill="#727489"/>
<path d="M25.0004 23.0789H6.99962C6.69656 23.0789 6.45081 23.3247 6.45081 23.6277C6.45081 23.9308 6.69649 24.1766 6.99962 24.1766H25.0004C25.3035 24.1766 25.5492 23.9308 25.5492 23.6277C25.5492 23.3247 25.3036 23.0789 25.0004 23.0789Z" fill="#727489"/>
<path d="M25.0004 31.8232H6.99962C6.69656 31.8232 6.45081 32.069 6.45081 32.3721C6.45081 32.6751 6.69649 32.9209 6.99962 32.9209H25.0004C25.3035 32.9209 25.5492 32.6751 25.5492 32.3721C25.5492 32.069 25.3036 31.8232 25.0004 31.8232Z" fill="#727489"/>
<path d="M9.92644 26.1295H7.65807C7.355 26.1295 7.10925 26.3753 7.10925 26.6783C7.10925 26.9814 7.355 27.2271 7.65807 27.2271H8.24344V29.3216C8.24344 29.6246 8.48913 29.8704 8.79225 29.8704C9.09532 29.8704 9.34106 29.6246 9.34106 29.3216V27.2271H9.92644C10.2295 27.2271 10.4753 26.9814 10.4753 26.6783C10.4753 26.3753 10.2296 26.1295 9.92644 26.1295Z" fill="#727489"/>
<path d="M11.3534 26.1295C11.0503 26.1295 10.8046 26.3753 10.8046 26.6783V29.3216C10.8046 29.6246 11.0503 29.8704 11.3534 29.8704C11.6564 29.8704 11.9022 29.6246 11.9022 29.3216V26.6783C11.9022 26.3753 11.6565 26.1295 11.3534 26.1295Z" fill="#727489"/>
<path d="M18.0225 28.9462L17.153 28.0188L18.0009 27.037C18.199 26.8076 18.1737 26.4611 17.9443 26.2629C17.7149 26.0647 17.3683 26.0901 17.1702 26.3195L16.4879 27.1094V26.6783C16.488 26.3753 16.2423 26.1295 15.9392 26.1295C15.6361 26.1295 15.3904 26.3753 15.3904 26.6783V29.3216C15.3904 29.6246 15.6361 29.8704 15.9392 29.8704C16.2423 29.8704 16.488 29.6246 16.488 29.3216V28.9143L17.2219 29.6969C17.3299 29.8122 17.4759 29.8704 17.6224 29.8704C17.7569 29.8704 17.8918 29.8212 17.9976 29.7219C18.2186 29.5146 18.2298 29.1673 18.0225 28.9462Z" fill="#727489"/>
<path d="M24.3418 26.1295H22.0735C21.7704 26.1295 21.5247 26.3753 21.5247 26.6783C21.5247 26.9814 21.7703 27.2271 22.0735 27.2271H22.6588V29.3216C22.6588 29.6246 22.9046 29.8704 23.2077 29.8704C23.5107 29.8704 23.7565 29.6246 23.7565 29.3216V27.2271H24.3418C24.6449 27.2271 24.8907 26.9814 24.8907 26.6783C24.8907 26.3753 24.6449 26.1295 24.3418 26.1295Z" fill="#727489"/>
<path d="M14.2852 28.7729C13.859 28.7729 13.5123 28.4262 13.5123 28C13.5123 27.5738 13.859 27.2271 14.2852 27.2271C14.5882 27.2271 14.834 26.9814 14.834 26.6783C14.834 26.3753 14.5882 26.1295 14.2852 26.1295C13.2538 26.1295 12.4147 26.9686 12.4147 28C12.4147 29.0314 13.2537 29.8705 14.2852 29.8705C14.5882 29.8705 14.834 29.6248 14.834 29.3217C14.834 29.0186 14.5882 28.7729 14.2852 28.7729Z" fill="#727489"/>
<path d="M20.6067 28.7728H19.6587V28.5488H19.8583C20.1613 28.5488 20.4071 28.303 20.4071 27.9999C20.4071 27.6969 20.1613 27.4511 19.8583 27.4511H19.6587V27.2271H20.6067V27.2271C20.9098 27.2271 21.1555 26.9814 21.1555 26.6783C21.1555 26.3753 20.9098 26.1295 20.6067 26.1295H19.1098C18.8068 26.1295 18.561 26.3753 18.561 26.6783V29.3216C18.561 29.6246 18.8068 29.8704 19.1098 29.8704H20.6067C20.9098 29.8704 21.1555 29.6246 21.1555 29.3216C21.1555 29.0185 20.9098 28.7728 20.6067 28.7728Z" fill="#727489"/>
</svg>
