<svg width="32" height="32" viewBox="0 0 32 32" fill="none" xmlns="http://www.w3.org/2000/svg">
<g clip-path="url(#clip0_37_67366)">
<path d="M31.8643 8.27633L25.987 0.981487C25.8707 0.83705 25.6952 0.753113 25.5097 0.753113H6.49038C6.30482 0.753113 6.12938 0.83705 6.01307 0.981487L0.135716 8.27633C-0.0355962 8.48889 -0.0456586 8.78896 0.110841 9.01258L15.4978 30.9855C15.499 30.9871 15.5004 30.9885 15.5015 30.9902C15.5145 31.0082 15.5281 31.0257 15.5429 31.0422C15.545 31.0445 15.5472 31.0466 15.5493 31.0489C15.5622 31.0627 15.5757 31.076 15.5897 31.0887C15.5943 31.0927 15.5988 31.0969 15.6035 31.1008C15.619 31.1139 15.6349 31.1265 15.6515 31.138C15.6528 31.1388 15.6538 31.1398 15.655 31.1406C15.6729 31.1528 15.6917 31.1637 15.7108 31.174C15.7158 31.1766 15.7207 31.1791 15.7257 31.1816C15.742 31.1898 15.7586 31.1972 15.7756 31.2039C15.7793 31.2054 15.783 31.2071 15.7867 31.2084C15.8072 31.2161 15.8282 31.2226 15.8497 31.2281C15.8539 31.2291 15.8582 31.2299 15.8624 31.2308C15.88 31.2349 15.8977 31.2381 15.9158 31.2406C15.9216 31.2414 15.9274 31.2422 15.9333 31.2429C15.9553 31.2453 15.9776 31.247 16.0002 31.247C16.0227 31.247 16.045 31.2454 16.067 31.2429C16.0729 31.2423 16.0787 31.2414 16.0845 31.2406C16.1026 31.2381 16.1203 31.2349 16.1379 31.2308C16.1422 31.2298 16.1464 31.2291 16.1506 31.2281C16.172 31.2227 16.1931 31.2161 16.2136 31.2084C16.2173 31.2071 16.221 31.2054 16.2247 31.2039C16.2417 31.1972 16.2583 31.1898 16.2746 31.1816C16.2796 31.1791 16.2846 31.1766 16.2895 31.174C16.3087 31.1637 16.3273 31.1528 16.3453 31.1406C16.3465 31.1398 16.3476 31.1388 16.3488 31.138C16.3655 31.1265 16.3813 31.114 16.3968 31.1008C16.4015 31.0968 16.406 31.0928 16.4106 31.0887C16.4247 31.076 16.4382 31.0627 16.451 31.0489C16.4531 31.0466 16.4554 31.0446 16.4574 31.0422C16.4721 31.0257 16.4858 31.0082 16.4988 30.9902C16.4999 30.9886 16.5013 30.9872 16.5025 30.9855L31.8895 9.01258C32.0457 8.78902 32.0356 8.48889 31.8643 8.27633ZM25.5595 2.40498L30.1059 8.04796H21.8438L25.5595 2.40498ZM24.3721 1.97911L20.7114 7.53834L17.125 1.97911H24.3721ZM19.5812 8.04796H12.4189L16 2.49698L19.5812 8.04796ZM14.875 1.97911L11.2885 7.53834L7.62787 1.97911H14.875ZM6.44057 2.40498L10.1563 8.04796H1.89415L6.44057 2.40498ZM1.79065 9.27395H10.7983L14.7672 27.8046L1.79065 9.27395ZM16 27.7069L12.0521 9.27395H19.948L16 27.7069ZM17.2329 27.8046L21.2018 9.27395H30.2093L17.2329 27.8046Z" fill="#727489"/>
</g>
<defs>
<clipPath id="clip0_37_67366">
<rect width="32" height="32" fill="white"/>
</clipPath>
</defs>
</svg>
